<svg width="115" height="31" viewBox="0 0 115 31" fill="none" xmlns="http://www.w3.org/2000/svg">
<path d="M9.20521 28.7784C7.59521 28.7784 6.19255 28.4407 4.99725 27.7657C3.82634 27.0664 2.98475 26.0419 2.47248 24.6916C1.9846 23.3172 1.94801 21.6053 2.36271 19.5559L4.55816 8.63356H12.8277L10.8152 18.5794C10.5957 19.6644 10.6445 20.4962 10.9616 21.0749C11.2787 21.6295 11.852 21.9067 12.6813 21.9067C13.6083 21.9067 14.3767 21.6053 14.9866 21.0026C15.6208 20.3757 16.0599 19.4233 16.3038 18.1454L18.2432 8.63356H26.5126L22.5243 28.4167H14.7304L15.8648 22.8832L16.8161 24.4022C15.8648 25.9212 14.6938 27.0302 13.3034 27.7296C11.9373 28.4289 10.5713 28.7784 9.20521 28.7784ZM34.8642 28.7784C33.0836 28.7784 31.3881 28.6097 29.7781 28.2721C28.1927 27.9104 26.9606 27.4764 26.0825 26.9701L28.9365 21.4004C29.9368 22.0032 31.0588 22.4613 32.3029 22.7747C33.5715 23.0641 34.7668 23.2087 35.8888 23.2087C36.8158 23.2087 37.4502 23.1243 37.7915 22.9556C38.1574 22.7627 38.3404 22.5336 38.3404 22.2684C38.3404 21.9791 38.0965 21.7741 37.6086 21.6536C37.1209 21.5089 36.4865 21.3883 35.7058 21.2919C34.9497 21.1955 34.1447 21.0508 33.2908 20.8579C32.4372 20.665 31.6199 20.3877 30.8392 20.0261C30.0831 19.6403 29.4611 19.1098 28.9731 18.4347C28.4854 17.7596 28.2413 16.8675 28.2413 15.7584C28.2413 14.0465 28.7415 12.6481 29.7415 11.5631C30.7661 10.454 32.1322 9.63416 33.8397 9.10372C35.5474 8.54916 37.4379 8.27189 39.5113 8.27189C40.9749 8.27189 42.3777 8.40449 43.7192 8.66972C45.0854 8.91083 46.2929 9.27249 47.3417 9.75472L44.4877 15.3244C43.4388 14.7216 42.3899 14.3238 41.3408 14.1309C40.3163 13.938 39.3772 13.8416 38.5233 13.8416C37.572 13.8416 36.9133 13.9501 36.5474 14.1671C36.1815 14.36 35.9986 14.577 35.9986 14.8181C35.9986 15.1074 36.2427 15.3244 36.7304 15.4691C37.2183 15.6137 37.8404 15.7463 38.5965 15.8669C39.3529 15.9633 40.1579 16.108 41.0115 16.3009C41.8897 16.4697 42.707 16.747 43.4631 17.1327C44.2195 17.4944 44.8415 18.0128 45.3292 18.6879C45.8172 19.363 46.0611 20.2551 46.0611 21.3642C46.0611 23.0038 45.5488 24.3781 44.5242 25.4872C43.5243 26.5962 42.1704 27.4281 40.4626 27.9827C38.7795 28.5131 36.9133 28.7784 34.8642 28.7784ZM56.1758 28.7784C54.5658 28.7784 53.1634 28.4407 51.9679 27.7657C50.797 27.0664 49.9554 26.0419 49.4431 24.6916C48.9554 23.3172 48.9188 21.6053 49.3333 19.5559L51.5288 8.63356H59.7983L57.7858 18.5794C57.5663 19.6644 57.6152 20.4962 57.9322 21.0749C58.2495 21.6295 58.8227 21.9067 59.652 21.9067C60.579 21.9067 61.3474 21.6053 61.9572 21.0026C62.5915 20.3757 63.0306 19.4233 63.2745 18.1454L65.2138 8.63356H73.4833L69.4949 28.4167H61.7011L62.8354 22.8832L63.7867 24.4022C62.8354 25.9212 61.6645 27.0302 60.274 27.7296C58.9081 28.4289 57.542 28.7784 56.1758 28.7784ZM82.6399 28.7784C81.3227 28.7784 80.03 28.4289 78.7613 27.7296C77.4929 27.0062 76.4441 25.9695 75.6145 24.6192C74.8095 23.2449 74.407 21.5812 74.407 19.6282C74.407 17.9887 74.6877 16.4817 75.2486 15.1074C75.8097 13.7331 76.5781 12.5396 77.5538 11.5269C78.554 10.4901 79.6884 9.69445 80.9568 9.13989C82.2497 8.56122 83.6159 8.27189 85.0549 8.27189C86.6163 8.27189 87.9702 8.58533 89.1165 9.21222C90.2631 9.83912 91.0804 10.9 91.5681 12.3949C92.0804 13.8657 92.1293 15.9031 91.7145 18.5071C91.3732 20.6288 90.7877 22.4613 89.9581 24.0044C89.1531 25.5475 88.1409 26.729 86.9211 27.5487C85.7016 28.3684 84.2745 28.7784 82.6399 28.7784ZM85.7502 22.3407C86.482 22.3407 87.1163 22.1599 87.6529 21.7982C88.1897 21.4125 88.6043 20.882 88.897 20.2069C89.2143 19.5318 89.3727 18.7361 89.3727 17.8199C89.3727 16.9037 89.1045 16.1562 88.5677 15.5776C88.0554 14.9989 87.3359 14.7096 86.4088 14.7096C85.7016 14.7096 85.0672 14.9025 84.5061 15.2882C83.9695 15.6499 83.5427 16.1683 83.2254 16.8434C82.9327 17.5185 82.7863 18.3142 82.7863 19.2304C82.7863 20.1466 83.0424 20.8941 83.5547 21.4727C84.0916 22.0514 84.8234 22.3407 85.7502 22.3407ZM87.6895 28.4167L88.2384 25.7404L89.5922 18.5071L90.6534 11.3461L91.2022 8.63356H99.4718L95.4834 28.4167H87.6895ZM99.4791 28.4167L104.895 1.58105H113.164L107.749 28.4167H99.4791Z" fill="black"/>
</svg>
